<svg xmlns="http://www.w3.org/2000/svg" viewBox="0 0 64 64"><defs><linearGradient id="g" x1="10" y1="6" x2="54" y2="58" gradientUnits="userSpaceOnUse"><stop stop-color="#E9F4F5"/><stop offset=".42" stop-color="#A9C7CB"/><stop offset="1" stop-color="#5F8993"/></linearGradient><radialGradient id="h" cx="36%" cy="28%" r="80%"><stop offset="0" stop-color="#FFFFFF" stop-opacity=".7"/><stop offset=".38" stop-color="#D8ECEE" stop-opacity=".32"/><stop offset="1" stop-color="#7FA6AE" stop-opacity="0"/></radialGradient><filter id="soft" x="-30%" y="-30%" width="160%" height="160%"><feGaussianBlur stdDeviation="1.1" result="b"/><feMerge><feMergeNode in="b"/><feMergeNode in="SourceGraphic"/></feMerge></filter></defs><path d="M14 50V22a4 4 0 0 1 4-4h16" fill="none" stroke="url(#g)" stroke-width="3" stroke-linecap="round" filter="url(#soft)"/><path d="M26 38 50 14m0 0H34m16 0v16" fill="none" stroke="url(#g)" stroke-width="3" stroke-linecap="round" stroke-linejoin="round"/><path d="M14 50V22a4 4 0 0 1 4-4h16" fill="none" stroke="url(#h)" stroke-width="3" stroke-linecap="round"/><path d="M26 38 50 14m0 0H34m16 0v16" fill="none" stroke="url(#h)" stroke-width="3" stroke-linecap="round" stroke-linejoin="round"/><path d="M18 24a4 4 0 0 1 4-4" stroke="#F8FFFF" stroke-opacity=".4" stroke-width="1.2" stroke-linecap="round" fill="none"/></svg>
