<svg xmlns="http://www.w3.org/2000/svg" viewBox="0 0 64 64"><defs><linearGradient id="g" x1="10" y1="6" x2="54" y2="58" gradientUnits="userSpaceOnUse"><stop stop-color="#E9F4F5"/><stop offset=".42" stop-color="#A9C7CB"/><stop offset="1" stop-color="#5F8993"/></linearGradient><radialGradient id="h" cx="36%" cy="28%" r="80%"><stop offset="0" stop-color="#FFFFFF" stop-opacity=".7"/><stop offset=".38" stop-color="#D8ECEE" stop-opacity=".32"/><stop offset="1" stop-color="#7FA6AE" stop-opacity="0"/></radialGradient><filter id="soft" x="-30%" y="-30%" width="160%" height="160%"><feGaussianBlur stdDeviation="1.1" result="b"/><feMerge><feMergeNode in="b"/><feMergeNode in="SourceGraphic"/></feMerge></filter></defs><path d="M20 20c-6 0-10 5-10 12s4 12 10 12c8 0 12-12 22-12 6 0 10 5 10 12s-4 12-10 12c-8 0-12-12-22-12-6 0-10 5-10 12" fill="none" stroke="url(#g)" stroke-width="3.5" stroke-linecap="round" filter="url(#soft)"/><path d="M20 20c-6 0-10 5-10 12s4 12 10 12c8 0 12-12 22-12 6 0 10 5 10 12s-4 12-10 12c-8 0-12-12-22-12-6 0-10 5-10 12" fill="none" stroke="url(#h)" stroke-width="3.5" stroke-linecap="round"/><path d="M20 20c-6 0-10 5-10 12s4 12 10 12c8 0 12-12 22-12 6 0 10 5 10 12s-4 12-10 12c-8 0-12-12-22-12-6 0-10 5-10 12" fill="none" stroke="#F8FFFF" stroke-opacity=".35" stroke-width="1" stroke-linecap="round"/></svg>
