<svg xmlns="http://www.w3.org/2000/svg" viewBox="0 0 100 100">
  <defs>
    <linearGradient id="fi" x1="0%" y1="0%" x2="100%" y2="100%">
      <stop offset="0%" stop-color="#E8F6F3" stop-opacity="0.95"/>
      <stop offset="50%" stop-color="#A2D9CE" stop-opacity="0.85"/>
      <stop offset="100%" stop-color="#48C9B0" stop-opacity="0.75"/>
    </linearGradient>
    <linearGradient id="fr" x1="100%" y1="0%" x2="0%" y2="100%">
      <stop offset="0%" stop-color="#D4E6F1" stop-opacity="0.95"/>
      <stop offset="60%" stop-color="#85C1E9" stop-opacity="0.85"/>
      <stop offset="100%" stop-color="#2E86C1" stop-opacity="0.75"/>
    </linearGradient>
    <linearGradient id="fk" x1="0%" y1="100%" x2="100%" y2="0%">
      <stop offset="0%" stop-color="#F5EEF8" stop-opacity="0.95"/>
      <stop offset="100%" stop-color="#D2B4DE" stop-opacity="0.85"/>
    </linearGradient>
  </defs>

  <!-- Circular background -->
  <circle cx="50" cy="50" r="44" fill="#0B1D2E"/>

  <!-- Sweetpea flower: native smaller coordinates with breathing room -->
  <path d="M 48 68 C 31 64, 23 52, 37 48 C 46 45, 51 52, 48 68" fill="url(#fi)"/>
  <path d="M 52 68 C 69 64, 77 52, 63 48 C 54 45, 49 52, 52 68" fill="url(#fr)"/>
  <path d="M 48 60 C 33 56, 29 38, 43 32 C 49 29, 52 40, 48 60" fill="url(#fr)"/>
  <path d="M 52 60 C 67 56, 71 38, 57 32 C 51 29, 48 40, 52 60" fill="url(#fi)"/>
  <path d="M 50 64 C 44 61, 42 53, 50 49 C 58 53, 56 61, 50 64" fill="url(#fk)"/>

  <circle cx="50" cy="48" r="4" fill="#FFFFFF" opacity="0.75"/>
  <circle cx="50" cy="52" r="2.5" fill="#FFFFFF" opacity="0.5"/>
</svg>
